<?xml version="1.0" encoding="UTF-8" standalone="no"?>
<!DOCTYPE svg PUBLIC "-//W3C//DTD SVG 1.1//EN"
 "http://www.w3.org/Graphics/SVG/1.1/DTD/svg11.dtd">
<!-- Generated by graphviz version 2.43.0 (0)
 -->
<!-- Title: types Pages: 1 -->
<svg width="292pt" height="316pt"
 viewBox="0.00 0.00 292.00 316.00" xmlns="http://www.w3.org/2000/svg" xmlns:xlink="http://www.w3.org/1999/xlink">
<g id="graph0" class="graph" transform="scale(1 1) rotate(0) translate(4 312)">
<title>types</title>
<polygon fill="white" stroke="transparent" points="-4,4 -4,-312 288,-312 288,4 -4,4"/>
<g id="clust2" class="cluster">
<title>cluster_ints</title>
<polygon fill="none" stroke="black" stroke-width="0" points="32,-248 32,-300 276,-300 276,-248 32,-248"/>
</g>
<!-- EE -->
<g id="node1" class="node">
<title>EE</title>
<polygon fill="lightgoldenrodyellow" stroke="black" points="226,-210 110,-210 110,-174 226,-174 226,-210"/>
<text text-anchor="middle" x="168" y="-189.8" font-family="Helvetica,sans-Serif" font-size="9.00">EngineeringQuantity&lt;T&gt;</text>
</g>
<!-- DA -->
<g id="node2" class="node">
<title>DA</title>
<polygon fill="lightgoldenrodyellow" stroke="black" points="130.5,-118 35.5,-118 35.5,-82 130.5,-82 130.5,-118"/>
<text text-anchor="middle" x="83" y="-97.8" font-family="Helvetica,sans-Serif" font-size="9.00">DisplayAdapter&lt;T&gt;</text>
</g>
<!-- EE&#45;&gt;DA -->
<g id="edge7" class="edge">
<title>EE&#45;&gt;DA</title>
<path fill="none" stroke="black" d="M127.36,-173.81C119.18,-168.96 111.2,-163.04 105,-156 97.99,-148.04 93.05,-137.56 89.66,-127.89"/>
<polygon fill="black" stroke="black" points="92.97,-126.75 86.66,-118.24 86.29,-128.83 92.97,-126.75"/>
<text text-anchor="middle" x="129" y="-148.8" font-family="Times,serif" font-size="9.00">(configurable</text>
<text text-anchor="middle" x="129" y="-138.8" font-family="Times,serif" font-size="9.00">format)</text>
</g>
<!-- into_int -->
<g id="node5" class="node">
<title>into_int</title>
<path fill="none" stroke="black" d="M93.5,-292C93.5,-292 52.5,-292 52.5,-292 46.5,-292 40.5,-286 40.5,-280 40.5,-280 40.5,-268 40.5,-268 40.5,-262 46.5,-256 52.5,-256 52.5,-256 93.5,-256 93.5,-256 99.5,-256 105.5,-262 105.5,-268 105.5,-268 105.5,-280 105.5,-280 105.5,-286 99.5,-292 93.5,-292"/>
<text text-anchor="middle" x="73" y="-276.8" font-family="Helvetica,sans-Serif" font-size="9.00">integers</text>
<text text-anchor="middle" x="73" y="-266.8" font-family="Helvetica,sans-Serif" font-size="9.00">(T or larger)</text>
</g>
<!-- EE&#45;&gt;into_int -->
<g id="edge6" class="edge">
<title>EE&#45;&gt;into_int</title>
<path fill="none" stroke="black" d="M130.85,-210.05C121.86,-215.11 112.65,-221.16 105,-228 98.77,-233.57 93.07,-240.57 88.27,-247.37"/>
<polygon fill="black" stroke="black" points="85.31,-245.5 82.68,-255.77 91.14,-249.38 85.31,-245.5"/>
<text text-anchor="middle" x="115" y="-230.8" font-family="Times,serif" font-size="9.00">From</text>
</g>
<!-- tuple -->
<g id="node6" class="node">
<title>tuple</title>
<path fill="none" stroke="black" d="M166,-292C166,-292 136,-292 136,-292 130,-292 124,-286 124,-280 124,-280 124,-268 124,-268 124,-262 130,-256 136,-256 136,-256 166,-256 166,-256 172,-256 178,-262 178,-268 178,-268 178,-280 178,-280 178,-286 172,-292 166,-292"/>
<text text-anchor="middle" x="151" y="-276.8" font-family="Helvetica,sans-Serif" font-size="9.00">raw tuple</text>
<text text-anchor="middle" x="151" y="-266.8" font-family="Helvetica,sans-Serif" font-size="9.00">(T, i8)</text>
</g>
<!-- EE&#45;&gt;tuple -->
<g id="edge4" class="edge">
<title>EE&#45;&gt;tuple</title>
<path fill="none" stroke="black" d="M169.24,-210.3C169.44,-218.75 169.06,-229.01 167,-238 166.38,-240.71 165.53,-243.47 164.56,-246.19"/>
<polygon fill="black" stroke="black" points="161.21,-245.11 160.59,-255.69 167.67,-247.81 161.21,-245.11"/>
<text text-anchor="middle" x="178" y="-230.8" font-family="Times,serif" font-size="9.00">From</text>
</g>
<!-- str -->
<g id="node7" class="node">
<title>str</title>
<path fill="none" stroke="black" d="M182,-36C182,-36 152,-36 152,-36 146,-36 140,-30 140,-24 140,-24 140,-12 140,-12 140,-6 146,0 152,0 152,0 182,0 182,0 188,0 194,-6 194,-12 194,-12 194,-24 194,-24 194,-30 188,-36 182,-36"/>
<text text-anchor="middle" x="167" y="-15.8" font-family="Helvetica,sans-Serif" font-size="9.00">String</text>
</g>
<!-- EE&#45;&gt;str -->
<g id="edge2" class="edge">
<title>EE&#45;&gt;str</title>
<path fill="none" stroke="black" d="M167.7,-173.89C167.46,-159.1 167.13,-137.14 167,-118 166.83,-93.78 166.85,-66.23 166.9,-46.35"/>
<polygon fill="black" stroke="black" points="170.4,-46.18 166.93,-36.17 163.4,-46.16 170.4,-46.18"/>
<text text-anchor="middle" x="181" y="-97.8" font-family="Times,serif" font-size="9.00">Display</text>
</g>
<!-- DA&#45;&gt;str -->
<g id="edge10" class="edge">
<title>DA&#45;&gt;str</title>
<path fill="none" stroke="black" d="M98.08,-81.85C105.87,-73.25 115.68,-62.81 125,-54 128.87,-50.34 133.05,-46.61 137.24,-43.01"/>
<polygon fill="black" stroke="black" points="139.8,-45.43 145.19,-36.3 135.29,-40.08 139.8,-45.43"/>
<text text-anchor="middle" x="139" y="-56.8" font-family="Times,serif" font-size="9.00">Display</text>
</g>
<!-- ER_trait -->
<g id="node3" class="node">
<title>ER_trait</title>
<polygon fill="lightgoldenrodyellow" stroke="black" points="92,-210 0,-210 0,-174 92,-174 92,-210"/>
<text text-anchor="middle" x="46" y="-194.8" font-family="Helvetica,sans-Serif" font-size="9.00">EngineeringRepr</text>
<text text-anchor="middle" x="46" y="-184.8" font-family="Helvetica,sans-Serif" font-size="9.00">(convenience trait)</text>
</g>
<!-- ER_trait&#45;&gt;DA -->
<g id="edge9" class="edge">
<title>ER_trait&#45;&gt;DA</title>
<path fill="none" stroke="black" d="M44.36,-173.93C43.96,-162.7 44.76,-147.92 50,-136 51.54,-132.51 53.57,-129.15 55.89,-125.98"/>
<polygon fill="black" stroke="black" points="58.75,-128.02 62.5,-118.11 53.39,-123.52 58.75,-128.02"/>
<text text-anchor="middle" x="66" y="-148.8" font-family="Times,serif" font-size="9.00">to_eng()</text>
<text text-anchor="middle" x="66" y="-138.8" font-family="Times,serif" font-size="9.00">to_rkm()</text>
</g>
<!-- from_ints -->
<g id="node4" class="node">
<title>from_ints</title>
<path fill="none" stroke="black" d="M255.5,-292C255.5,-292 208.5,-292 208.5,-292 202.5,-292 196.5,-286 196.5,-280 196.5,-280 196.5,-268 196.5,-268 196.5,-262 202.5,-256 208.5,-256 208.5,-256 255.5,-256 255.5,-256 261.5,-256 267.5,-262 267.5,-268 267.5,-268 267.5,-280 267.5,-280 267.5,-286 261.5,-292 255.5,-292"/>
<text text-anchor="middle" x="232" y="-276.8" font-family="Helvetica,sans-Serif" font-size="9.00">integer types</text>
<text text-anchor="middle" x="232" y="-266.8" font-family="Helvetica,sans-Serif" font-size="9.00">(T or smaller)</text>
</g>
<!-- from_ints&#45;&gt;EE -->
<g id="edge3" class="edge">
<title>from_ints&#45;&gt;EE</title>
<path fill="none" stroke="black" d="M218.11,-255.64C209.33,-244.66 197.84,-230.29 188.07,-218.09"/>
<polygon fill="black" stroke="black" points="190.62,-215.67 181.64,-210.05 185.15,-220.05 190.62,-215.67"/>
<text text-anchor="middle" x="213" y="-230.8" font-family="Times,serif" font-size="9.00">From</text>
</g>
<!-- into_int&#45;&gt;ER_trait -->
<g id="edge8" class="edge">
<title>into_int&#45;&gt;ER_trait</title>
<path fill="none" stroke="black" stroke-dasharray="5,2" d="M56.9,-255.7C52.91,-250.41 49.16,-244.3 47,-238 45.1,-232.46 44.22,-226.3 43.94,-220.36"/>
<polygon fill="black" stroke="black" points="47.44,-220.11 43.97,-210.1 40.44,-220.09 47.44,-220.11"/>
<text text-anchor="middle" x="57.5" y="-230.8" font-family="Times,serif" font-size="9.00"> &#160;impl</text>
</g>
<!-- tuple&#45;&gt;EE -->
<g id="edge5" class="edge">
<title>tuple&#45;&gt;EE</title>
<path fill="none" stroke="black" d="M135.71,-255.99C130.06,-247.61 125.91,-237.32 130,-228 131.62,-224.32 133.83,-220.85 136.39,-217.64"/>
<polygon fill="black" stroke="black" points="139.06,-219.9 143.29,-210.19 133.92,-215.14 139.06,-219.9"/>
<text text-anchor="middle" x="146.5" y="-230.8" font-family="Times,serif" font-size="9.00">TryFrom</text>
</g>
<!-- str&#45;&gt;EE -->
<g id="edge1" class="edge">
<title>str&#45;&gt;EE</title>
<path fill="none" stroke="black" d="M178.45,-36.06C185.94,-48.27 195.03,-65.42 199,-82 205.82,-110.5 194.21,-142.74 183.31,-164.71"/>
<polygon fill="black" stroke="black" points="180.11,-163.27 178.57,-173.75 186.31,-166.52 180.11,-163.27"/>
<text text-anchor="middle" x="216.5" y="-97.8" font-family="Times,serif" font-size="9.00">FromStr</text>
</g>
</g>
</svg>
