<?xml version="1.0" encoding="UTF-8" standalone="no"?>
<!DOCTYPE svg PUBLIC "-//W3C//DTD SVG 1.1//EN"
 "http://www.w3.org/Graphics/SVG/1.1/DTD/svg11.dtd">
<!-- Generated by graphviz version 2.43.0 (0)
 -->
<!-- Title: types Pages: 1 -->
<svg width="386pt" height="291pt"
 viewBox="0.00 0.00 385.50 291.00" xmlns="http://www.w3.org/2000/svg" xmlns:xlink="http://www.w3.org/1999/xlink">
<g id="graph0" class="graph" transform="scale(1 1) rotate(0) translate(4 287)">
<title>types</title>
<polygon fill="white" stroke="transparent" points="-4,4 -4,-287 381.5,-287 381.5,4 -4,4"/>
<!-- EQ -->
<g id="node1" class="node">
<title>EQ</title>
<polygon fill="lightgoldenrodyellow" stroke="black" points="259,-201 143,-201 143,-165 259,-165 259,-201"/>
<text text-anchor="middle" x="201" y="-180.8" font-family="Helvetica,sans-Serif" font-size="9.00">EngineeringQuantity&lt;T&gt;</text>
</g>
<!-- DA -->
<g id="node2" class="node">
<title>DA</title>
<polygon fill="lightgoldenrodyellow" stroke="black" points="377.5,-109 282.5,-109 282.5,-73 377.5,-73 377.5,-109"/>
<text text-anchor="middle" x="330" y="-88.8" font-family="Helvetica,sans-Serif" font-size="9.00">DisplayAdapter&lt;T&gt;</text>
</g>
<!-- EQ&#45;&gt;DA -->
<g id="edge6" class="edge">
<title>EQ&#45;&gt;DA</title>
<path fill="none" stroke="black" d="M237.75,-164.85C247.85,-159.6 258.6,-153.48 268,-147 281.16,-137.93 294.56,-126.38 305.53,-116.21"/>
<polygon fill="black" stroke="black" points="308.19,-118.52 313.05,-109.1 303.38,-113.43 308.19,-118.52"/>
</g>
<!-- tuple -->
<g id="node5" class="node">
<title>tuple</title>
<path fill="none" stroke="black" d="M48,-109C48,-109 12,-109 12,-109 6,-109 0,-103 0,-97 0,-97 0,-85 0,-85 0,-79 6,-73 12,-73 12,-73 48,-73 48,-73 54,-73 60,-79 60,-85 60,-85 60,-97 60,-97 60,-103 54,-109 48,-109"/>
<text text-anchor="middle" x="30" y="-93.8" font-family="Helvetica,sans-Serif" font-size="9.00">&quot;raw&quot; tuple</text>
<text text-anchor="middle" x="30" y="-83.8" font-family="Helvetica,sans-Serif" font-size="9.00">(T, i8)</text>
</g>
<!-- EQ&#45;&gt;tuple -->
<g id="edge3" class="edge">
<title>EQ&#45;&gt;tuple</title>
<path fill="none" stroke="black" stroke-dasharray="5,2" d="M159.28,-160.04C131.85,-145.61 96.2,-126.84 69.28,-112.67"/>
<polygon fill="black" stroke="black" points="157.95,-163.3 168.43,-164.86 161.21,-157.11 157.95,-163.3"/>
<polygon fill="black" stroke="black" points="70.63,-109.43 60.15,-107.87 67.37,-115.62 70.63,-109.43"/>
</g>
<!-- ratio -->
<g id="node6" class="node">
<title>ratio</title>
<path fill="none" stroke="black" d="M141.5,-109C141.5,-109 90.5,-109 90.5,-109 84.5,-109 78.5,-103 78.5,-97 78.5,-97 78.5,-85 78.5,-85 78.5,-79 84.5,-73 90.5,-73 90.5,-73 141.5,-73 141.5,-73 147.5,-73 153.5,-79 153.5,-85 153.5,-85 153.5,-97 153.5,-97 153.5,-103 147.5,-109 141.5,-109"/>
<text text-anchor="middle" x="116" y="-93.8" font-family="Helvetica,sans-Serif" font-size="9.00">num_rational::</text>
<text text-anchor="middle" x="116" y="-83.8" font-family="Helvetica,sans-Serif" font-size="9.00">Ratio&lt;T&gt;</text>
</g>
<!-- EQ&#45;&gt;ratio -->
<g id="edge5" class="edge">
<title>EQ&#45;&gt;ratio</title>
<path fill="none" stroke="black" stroke-dasharray="5,2" d="M177.48,-157.1C165.6,-144.52 151.22,-129.29 139.36,-116.73"/>
<polygon fill="black" stroke="black" points="175.2,-159.78 184.61,-164.65 180.29,-154.97 175.2,-159.78"/>
<polygon fill="black" stroke="black" points="141.75,-114.17 132.34,-109.3 136.66,-118.97 141.75,-114.17"/>
</g>
<!-- floats -->
<g id="node7" class="node">
<title>floats</title>
<path fill="none" stroke="black" d="M214,-109C214,-109 184,-109 184,-109 178,-109 172,-103 172,-97 172,-97 172,-85 172,-85 172,-79 178,-73 184,-73 184,-73 214,-73 214,-73 220,-73 226,-79 226,-85 226,-85 226,-97 226,-97 226,-103 220,-109 214,-109"/>
<text text-anchor="middle" x="199" y="-88.8" font-family="Helvetica,sans-Serif" font-size="9.00">f32, f64</text>
</g>
<!-- EQ&#45;&gt;floats -->
<g id="edge4" class="edge">
<title>EQ&#45;&gt;floats</title>
<path fill="none" stroke="black" stroke-dasharray="5,2" d="M200.61,-164.65C200.33,-151.82 199.94,-134.11 199.61,-119.38"/>
<polygon fill="black" stroke="black" points="203.11,-119.22 199.38,-109.3 196.11,-119.37 203.11,-119.22"/>
</g>
<!-- str -->
<g id="node8" class="node">
<title>str</title>
<path fill="none" stroke="black" d="M281,-36C281,-36 251,-36 251,-36 245,-36 239,-30 239,-24 239,-24 239,-12 239,-12 239,-6 245,0 251,0 251,0 281,0 281,0 287,0 293,-6 293,-12 293,-12 293,-24 293,-24 293,-30 287,-36 281,-36"/>
<text text-anchor="middle" x="266" y="-15.8" font-family="Helvetica,sans-Serif" font-size="9.00">String</text>
</g>
<!-- DA&#45;&gt;str -->
<g id="edge9" class="edge">
<title>DA&#45;&gt;str</title>
<path fill="none" stroke="black" d="M314.51,-72.81C306.57,-64 296.76,-53.13 288.05,-43.46"/>
<polygon fill="black" stroke="black" points="290.65,-41.11 281.35,-36.03 285.45,-45.8 290.65,-41.11"/>
</g>
<!-- ER_trait -->
<g id="node3" class="node">
<title>ER_trait</title>
<polygon fill="lightgoldenrodyellow" stroke="black" points="370,-201 278,-201 278,-165 370,-165 370,-201"/>
<text text-anchor="middle" x="324" y="-185.8" font-family="Helvetica,sans-Serif" font-size="9.00">EngineeringRepr</text>
<text text-anchor="middle" x="324" y="-175.8" font-family="Helvetica,sans-Serif" font-size="9.00">(convenience trait)</text>
</g>
<!-- ER_trait&#45;&gt;DA -->
<g id="edge8" class="edge">
<title>ER_trait&#45;&gt;DA</title>
<path fill="none" stroke="black" d="M325.16,-164.65C326.01,-151.82 327.19,-134.11 328.17,-119.38"/>
<polygon fill="black" stroke="black" points="331.67,-119.51 328.85,-109.3 324.69,-119.04 331.67,-119.51"/>
<text text-anchor="middle" x="344" y="-139.8" font-family="Times,serif" font-size="9.00"> to_eng()</text>
<text text-anchor="middle" x="344" y="-129.8" font-family="Times,serif" font-size="9.00"> to_rkm()</text>
</g>
<!-- ints -->
<g id="node4" class="node">
<title>ints</title>
<path fill="none" stroke="black" d="M276,-283C276,-283 246,-283 246,-283 240,-283 234,-277 234,-271 234,-271 234,-259 234,-259 234,-253 240,-247 246,-247 246,-247 276,-247 276,-247 282,-247 288,-253 288,-259 288,-259 288,-271 288,-271 288,-277 282,-283 276,-283"/>
<text text-anchor="middle" x="261" y="-262.8" font-family="Helvetica,sans-Serif" font-size="9.00">integers</text>
</g>
<!-- ints&#45;&gt;EQ -->
<g id="edge2" class="edge">
<title>ints&#45;&gt;EQ</title>
<path fill="none" stroke="black" stroke-dasharray="5,2" d="M241.93,-238.57C234.89,-229.19 226.93,-218.58 219.91,-209.22"/>
<polygon fill="black" stroke="black" points="239.18,-240.74 247.98,-246.64 244.78,-236.54 239.18,-240.74"/>
<polygon fill="black" stroke="black" points="222.59,-206.95 213.79,-201.05 216.99,-211.15 222.59,-206.95"/>
</g>
<!-- ints&#45;&gt;ER_trait -->
<g id="edge7" class="edge">
<title>ints&#45;&gt;ER_trait</title>
<polygon fill="black" stroke="transparent" points="275.06,-246.95 276.36,-245.27 277.7,-243.53 279.06,-241.76 280.46,-239.94 281.89,-238.1 283.33,-236.22 284.8,-234.31 286.29,-232.39 287.79,-230.44 289.3,-228.48 290.81,-226.52 292.33,-224.54 293.85,-222.57 295.37,-220.6 296.88,-218.64 298.39,-216.69 299.88,-214.75 301.35,-212.84 302.81,-210.95 304.24,-209.09 304.24,-209.09 302.77,-210.92 301.27,-212.78 299.76,-214.66 298.23,-216.56 296.68,-218.48 295.13,-220.41 293.57,-222.35 292.01,-224.29 290.45,-226.23 288.89,-228.17 287.34,-230.09 285.8,-232.01 284.28,-233.9 282.77,-235.77 281.29,-237.62 279.82,-239.44 278.39,-241.22 276.98,-242.97 275.61,-244.67 274.28,-246.33 275.06,-246.95"/>
<polygon fill="black" stroke="black" points="307.14,-211.07 310.57,-201.05 301.64,-206.74 307.14,-211.07"/>
<text text-anchor="middle" x="306.5" y="-221.8" font-family="Times,serif" font-size="9.00"> &#160;impl</text>
</g>
<!-- str&#45;&gt;EQ -->
<g id="edge1" class="edge">
<title>str&#45;&gt;EQ</title>
<path fill="none" stroke="black" stroke-dasharray="5,2" d="M257.61,-45.69C251.75,-63.74 243.47,-88.02 235,-109 228.68,-124.65 220.76,-141.77 214.16,-155.49"/>
<polygon fill="black" stroke="black" points="260.97,-46.71 260.69,-36.11 254.3,-44.56 260.97,-46.71"/>
<polygon fill="black" stroke="black" points="210.85,-154.3 209.62,-164.82 217.14,-157.36 210.85,-154.3"/>
</g>
</g>
</svg>
