<?xml version="1.0" encoding="UTF-8" standalone="no"?>
<!DOCTYPE svg PUBLIC "-//W3C//DTD SVG 1.1//EN"
 "http://www.w3.org/Graphics/SVG/1.1/DTD/svg11.dtd">
<!-- Generated by graphviz version 2.43.0 (0)
 -->
<!-- Title: types Pages: 1 -->
<svg width="286pt" height="316pt"
 viewBox="0.00 0.00 286.00 316.00" xmlns="http://www.w3.org/2000/svg" xmlns:xlink="http://www.w3.org/1999/xlink">
<g id="graph0" class="graph" transform="scale(1 1) rotate(0) translate(4 312)">
<title>types</title>
<polygon fill="white" stroke="transparent" points="-4,4 -4,-312 282,-312 282,4 -4,4"/>
<g id="clust2" class="cluster">
<title>cluster_ints</title>
<polygon fill="none" stroke="black" stroke-width="0" points="8,-248 8,-300 214,-300 214,-248 8,-248"/>
</g>
<!-- EE -->
<g id="node1" class="node">
<title>EE</title>
<polygon fill="lightgoldenrodyellow" stroke="black" points="228,-210 112,-210 112,-174 228,-174 228,-210"/>
<text text-anchor="middle" x="170" y="-189.8" font-family="Helvetica,sans-Serif" font-size="9.00">EngineeringQuantity&lt;T&gt;</text>
</g>
<!-- DA -->
<g id="node2" class="node">
<title>DA</title>
<polygon fill="lightgoldenrodyellow" stroke="black" points="132.5,-118 37.5,-118 37.5,-82 132.5,-82 132.5,-118"/>
<text text-anchor="middle" x="85" y="-97.8" font-family="Helvetica,sans-Serif" font-size="9.00">DisplayAdapter&lt;T&gt;</text>
</g>
<!-- EE&#45;&gt;DA -->
<g id="edge6" class="edge">
<title>EE&#45;&gt;DA</title>
<path fill="none" stroke="black" d="M129.36,-173.81C121.18,-168.96 113.2,-163.04 107,-156 99.99,-148.04 95.05,-137.56 91.66,-127.89"/>
<polygon fill="black" stroke="black" points="94.97,-126.75 88.66,-118.24 88.29,-128.83 94.97,-126.75"/>
<text text-anchor="middle" x="131" y="-148.8" font-family="Times,serif" font-size="9.00">(configurable</text>
<text text-anchor="middle" x="131" y="-138.8" font-family="Times,serif" font-size="9.00">format)</text>
</g>
<!-- into_int -->
<g id="node5" class="node">
<title>into_int</title>
<path fill="none" stroke="black" d="M94,-292C94,-292 28,-292 28,-292 22,-292 16,-286 16,-280 16,-280 16,-268 16,-268 16,-262 22,-256 28,-256 28,-256 94,-256 94,-256 100,-256 106,-262 106,-268 106,-268 106,-280 106,-280 106,-286 100,-292 94,-292"/>
<text text-anchor="middle" x="61" y="-276.8" font-family="Helvetica,sans-Serif" font-size="9.00">integers</text>
<text text-anchor="middle" x="61" y="-266.8" font-family="Helvetica,sans-Serif" font-size="9.00">(i16/u16 or larger)</text>
</g>
<!-- EE&#45;&gt;into_int -->
<g id="edge5" class="edge">
<title>EE&#45;&gt;into_int</title>
<path fill="none" stroke="black" d="M146.66,-210.13C130.86,-221.73 109.81,-237.18 92.52,-249.86"/>
<polygon fill="black" stroke="black" points="90.37,-247.1 84.38,-255.84 94.52,-252.74 90.37,-247.1"/>
<text text-anchor="middle" x="139.5" y="-230.8" font-family="Times,serif" font-size="9.00">TryFrom</text>
</g>
<!-- str -->
<g id="node6" class="node">
<title>str</title>
<path fill="none" stroke="black" d="M184,-36C184,-36 154,-36 154,-36 148,-36 142,-30 142,-24 142,-24 142,-12 142,-12 142,-6 148,0 154,0 154,0 184,0 184,0 190,0 196,-6 196,-12 196,-12 196,-24 196,-24 196,-30 190,-36 184,-36"/>
<text text-anchor="middle" x="169" y="-15.8" font-family="Helvetica,sans-Serif" font-size="9.00">String</text>
</g>
<!-- EE&#45;&gt;str -->
<g id="edge2" class="edge">
<title>EE&#45;&gt;str</title>
<path fill="none" stroke="black" d="M169.7,-173.89C169.46,-159.1 169.13,-137.14 169,-118 168.83,-93.78 168.85,-66.23 168.9,-46.35"/>
<polygon fill="black" stroke="black" points="172.4,-46.18 168.93,-36.17 165.4,-46.16 172.4,-46.18"/>
<text text-anchor="middle" x="183" y="-97.8" font-family="Times,serif" font-size="9.00">Display</text>
</g>
<!-- DA&#45;&gt;str -->
<g id="edge9" class="edge">
<title>DA&#45;&gt;str</title>
<path fill="none" stroke="black" d="M100.08,-81.85C107.87,-73.25 117.68,-62.81 127,-54 130.87,-50.34 135.05,-46.61 139.24,-43.01"/>
<polygon fill="black" stroke="black" points="141.8,-45.43 147.19,-36.3 137.29,-40.08 141.8,-45.43"/>
<text text-anchor="middle" x="141" y="-56.8" font-family="Times,serif" font-size="9.00">Display</text>
</g>
<!-- ER_trait -->
<g id="node3" class="node">
<title>ER_trait</title>
<polygon fill="lightgoldenrodyellow" stroke="black" points="94,-210 2,-210 2,-174 94,-174 94,-210"/>
<text text-anchor="middle" x="48" y="-194.8" font-family="Helvetica,sans-Serif" font-size="9.00">EngineeringRepr</text>
<text text-anchor="middle" x="48" y="-184.8" font-family="Helvetica,sans-Serif" font-size="9.00">(convenience trait)</text>
</g>
<!-- ER_trait&#45;&gt;DA -->
<g id="edge8" class="edge">
<title>ER_trait&#45;&gt;DA</title>
<path fill="none" stroke="black" d="M46.36,-173.93C45.96,-162.7 46.76,-147.92 52,-136 53.54,-132.51 55.57,-129.15 57.89,-125.98"/>
<polygon fill="black" stroke="black" points="60.75,-128.02 64.5,-118.11 55.39,-123.52 60.75,-128.02"/>
<text text-anchor="middle" x="68" y="-148.8" font-family="Times,serif" font-size="9.00">to_eng()</text>
<text text-anchor="middle" x="68" y="-138.8" font-family="Times,serif" font-size="9.00">to_rkm()</text>
</g>
<!-- from_ints -->
<g id="node4" class="node">
<title>from_ints</title>
<path fill="none" stroke="black" d="M193.5,-292C193.5,-292 136.5,-292 136.5,-292 130.5,-292 124.5,-286 124.5,-280 124.5,-280 124.5,-268 124.5,-268 124.5,-262 130.5,-256 136.5,-256 136.5,-256 193.5,-256 193.5,-256 199.5,-256 205.5,-262 205.5,-268 205.5,-268 205.5,-280 205.5,-280 205.5,-286 199.5,-292 193.5,-292"/>
<text text-anchor="middle" x="165" y="-276.8" font-family="Helvetica,sans-Serif" font-size="9.00">integer types</text>
<text text-anchor="middle" x="165" y="-266.8" font-family="Helvetica,sans-Serif" font-size="9.00">(where Into&lt;T&gt;)</text>
</g>
<!-- from_ints&#45;&gt;EE -->
<g id="edge3" class="edge">
<title>from_ints&#45;&gt;EE</title>
<path fill="none" stroke="black" d="M166.08,-255.64C166.73,-245.3 167.57,-231.94 168.3,-220.22"/>
<polygon fill="black" stroke="black" points="171.8,-220.25 168.93,-210.05 164.82,-219.81 171.8,-220.25"/>
<text text-anchor="middle" x="178" y="-230.8" font-family="Times,serif" font-size="9.00">From</text>
</g>
<!-- into_int&#45;&gt;ER_trait -->
<g id="edge7" class="edge">
<title>into_int&#45;&gt;ER_trait</title>
<path fill="none" stroke="black" stroke-dasharray="5,2" d="M58.18,-255.64C56.5,-245.3 54.33,-231.94 52.42,-220.22"/>
<polygon fill="black" stroke="black" points="55.83,-219.36 50.77,-210.05 48.92,-220.48 55.83,-219.36"/>
<text text-anchor="middle" x="66.5" y="-230.8" font-family="Times,serif" font-size="9.00"> &#160;impl</text>
</g>
<!-- str&#45;&gt;EE -->
<g id="edge1" class="edge">
<title>str&#45;&gt;EE</title>
<path fill="none" stroke="black" d="M180.45,-36.06C187.94,-48.27 197.03,-65.42 201,-82 207.82,-110.5 196.21,-142.74 185.31,-164.71"/>
<polygon fill="black" stroke="black" points="182.11,-163.27 180.57,-173.75 188.31,-166.52 182.11,-163.27"/>
<text text-anchor="middle" x="218.5" y="-97.8" font-family="Times,serif" font-size="9.00">FromStr</text>
</g>
<!-- tuple -->
<g id="node7" class="node">
<title>tuple</title>
<path fill="none" stroke="black" d="M266,-292C266,-292 236,-292 236,-292 230,-292 224,-286 224,-280 224,-280 224,-268 224,-268 224,-262 230,-256 236,-256 236,-256 266,-256 266,-256 272,-256 278,-262 278,-268 278,-268 278,-280 278,-280 278,-286 272,-292 266,-292"/>
<text text-anchor="middle" x="251" y="-276.8" font-family="Helvetica,sans-Serif" font-size="9.00">raw tuple</text>
<text text-anchor="middle" x="251" y="-266.8" font-family="Helvetica,sans-Serif" font-size="9.00">(T, i8)</text>
</g>
<!-- tuple&#45;&gt;EE -->
<g id="edge4" class="edge">
<title>tuple&#45;&gt;EE</title>
<path fill="none" stroke="black" d="M225.96,-248.27C215.96,-238.39 204.48,-227.05 194.52,-217.22"/>
<polygon fill="black" stroke="black" points="223.85,-251.1 233.42,-255.64 228.77,-246.12 223.85,-251.1"/>
<polygon fill="black" stroke="black" points="196.84,-214.59 187.26,-210.05 191.92,-219.57 196.84,-214.59"/>
<text text-anchor="middle" x="225" y="-230.8" font-family="Times,serif" font-size="9.00">From</text>
</g>
</g>
</svg>
